<?xml version="1.0" encoding="utf-8"?>
<!-- Generator: Adobe Illustrator 26.3.1, SVG Export Plug-In . SVG Version: 6.00 Build 0)  -->
<svg version="1.1" id="Layer_1" xmlns="http://www.w3.org/2000/svg" xmlns:xlink="http://www.w3.org/1999/xlink" x="0px" y="0px"
	 viewBox="0 0 700 700" style="enable-background:new 0 0 700 700;" xml:space="preserve">
<path d="M663.2,459.5l-155.7,68.9c-3.6,1.4-6.4,4.3-7.8,7.8l-68.2,154.9c-6.4,14.9-30.6,10-37-7.8l-135-373.2
	c-5.7-14.9,6.4-27,22-22l373.9,133.6C673.1,428.9,678.1,452.4,663.2,459.5L663.2,459.5z"/>
<path d="M287.2,506.4c-4.3,0-7.8,0.7-12.1,0.7C161.4,507.1,69,414.7,69,301c0-113.7,92.4-206.1,206.1-206.1
	c113.7,0,206.1,92.4,206.1,206.1c0,4.3,0,7.8-0.7,12.1l32.7,8.5c0.7-7.1,0.7-13.5,0.7-20.6c0.7-132.9-107.3-240.2-239.5-240.2
	S34.9,168.1,34.9,301c0,132.9,107.3,240.2,240.2,240.2c7.1,0,14.2-0.7,21.3-0.7L287.2,506.4z"/>
<path d="M267.3,432.5c-69.7-4.3-125.1-61.8-125.1-132.2c0-73.2,59.7-132.2,132.2-132.2c70.4,0,127.9,55.4,132.2,125.1l34.1,9.2V301
	c0-91.7-74.6-166.3-166.3-166.3c-91.7,0-165.6,74.6-165.6,166.3c0,91.7,74.6,166.3,166.3,166.3h1.4L267.3,432.5z"/>
</svg>
